<svg width="261" height="192" viewBox="0 0 261 192" fill="none" xmlns="http://www.w3.org/2000/svg">
<path d="M234.278 178.867H217.031V178.997H234.278V178.867Z" fill="#EBEBEB"/>
<path d="M172.478 180.283H167.953V180.413H172.478V180.283Z" fill="#EBEBEB"/>
<path d="M216.51 174.035H206.518V174.165H216.51V174.035Z" fill="#EBEBEB"/>
<path d="M49.8069 174.909H27.3164V175.039H49.8069V174.909Z" fill="#EBEBEB"/>
<path d="M57.7455 174.91H54.4492V175.04H57.7455V174.91Z" fill="#EBEBEB"/>
<path d="M117.243 177.107H68.4609V177.238H117.243V177.107Z" fill="#EBEBEB"/>
<path d="M124.142 147.264H23.5886C22.8 147.264 22.0437 146.95 21.4861 146.393C20.9285 145.835 20.6152 145.079 20.6152 144.29V2.94736C20.6221 2.16328 20.9384 1.41366 21.4953 0.861662C22.0521 0.309661 22.8045 -3.00599e-05 23.5886 2.18841e-09H124.142C124.533 2.18842e-09 124.92 0.0769084 125.28 0.226335C125.641 0.375762 125.969 0.594782 126.245 0.870887C126.521 1.14699 126.74 1.47478 126.89 1.83553C127.039 2.19627 127.116 2.58292 127.116 2.97339V144.29C127.116 144.681 127.039 145.067 126.89 145.428C126.74 145.789 126.521 146.117 126.245 146.393C125.969 146.669 125.641 146.888 125.28 147.037C124.92 147.187 124.533 147.264 124.142 147.264ZM23.5886 0.104147C22.835 0.105524 22.1126 0.405517 21.5797 0.938424C21.0468 1.47133 20.7468 2.19371 20.7454 2.94736V144.29C20.7468 145.044 21.0468 145.766 21.5797 146.299C22.1126 146.832 22.835 147.132 23.5886 147.133H124.142C124.896 147.132 125.618 146.832 126.151 146.299C126.684 145.766 126.984 145.044 126.986 144.29V2.94736C126.984 2.19371 126.684 1.47133 126.151 0.938424C125.618 0.405517 124.896 0.105524 124.142 0.104147H23.5886Z" fill="#EBEBEB"/>
<path d="M236.777 147.264H136.223C135.435 147.264 134.679 146.95 134.121 146.393C133.563 145.835 133.25 145.079 133.25 144.29V2.94736C133.257 2.16328 133.573 1.41366 134.13 0.861662C134.687 0.309661 135.439 -3.00599e-05 136.223 2.18841e-09H236.777C237.566 2.18842e-09 238.322 0.313267 238.88 0.870887C239.437 1.42851 239.751 2.1848 239.751 2.97339V144.29C239.751 145.079 239.437 145.835 238.88 146.393C238.322 146.95 237.566 147.264 236.777 147.264ZM136.223 0.104147C135.47 0.105524 134.747 0.405517 134.214 0.938424C133.682 1.47133 133.382 2.19371 133.38 2.94736V144.29C133.382 145.044 133.682 145.766 134.214 146.299C134.747 146.832 135.47 147.132 136.223 147.133H236.777C237.531 147.132 238.253 146.832 238.786 146.299C239.319 145.766 239.619 145.044 239.62 144.29V2.94736C239.619 2.19371 239.319 1.47133 238.786 0.938424C238.253 0.405517 237.531 0.105524 236.777 0.104147H136.223Z" fill="#EBEBEB"/>
<path d="M260.367 170.488H0V170.618H260.367V170.488Z" fill="#EBEBEB"/>
<path d="M110.697 29.7702C110.15 29.7614 109.617 29.9458 109.192 30.2909C109.278 29.8192 109.278 29.3358 109.192 28.8641C108.962 27.7432 108.362 26.732 107.488 25.9927C106.615 25.2534 105.519 24.8287 104.375 24.7868C103.732 24.7786 103.099 24.9441 102.542 25.2658C102.119 24.4892 101.501 23.8363 100.748 23.3715C99.9959 22.9067 99.1352 22.646 98.2513 22.6153C97.741 22.5974 97.2334 22.6977 96.7681 22.9081C96.3028 23.1186 95.8924 23.4337 95.5689 23.8288C95.2453 24.2239 95.0174 24.6884 94.9028 25.186C94.7882 25.6837 94.79 26.2011 94.9082 26.6979C94.9437 26.8738 94.9889 27.0477 95.0436 27.2186C94.6851 27.1231 94.3158 27.0741 93.9449 27.0728C93.4345 27.0549 92.9269 27.1551 92.4616 27.3656C91.9963 27.5761 91.5859 27.8912 91.2624 28.2863C90.9389 28.6814 90.7109 29.1459 90.5963 29.6435C90.4817 30.1412 90.4836 30.6585 90.6017 31.1554C90.8311 32.2767 91.4307 33.2884 92.3043 34.0279C93.1779 34.7673 94.2747 35.1917 95.4185 35.2327H111.681C112.024 35.2451 112.365 35.1782 112.677 35.0372C112.99 34.8962 113.266 34.685 113.484 34.4199C113.701 34.1549 113.855 33.8432 113.933 33.5091C114.01 33.175 114.009 32.8275 113.931 32.4936C113.773 31.7438 113.369 31.0684 112.783 30.5748C112.197 30.0812 111.463 29.798 110.697 29.7702Z" fill="#F5F5F5"/>
<path d="M83.9776 33.1339C82.9837 33.1161 82.0155 33.45 81.2437 34.0765C81.4073 33.2163 81.4073 32.333 81.2437 31.4728C80.5043 27.3798 76.5935 24.0627 72.5006 24.0627C71.3352 24.0497 70.1878 24.3501 69.1783 24.9324C67.6161 22.1256 64.5594 20.126 61.3673 20.126C57.2743 20.126 54.5561 23.4431 55.2955 27.536C55.3579 27.869 55.4414 28.1978 55.5455 28.5202C54.8944 28.3485 54.2244 28.2593 53.5511 28.2546C49.4581 28.2546 46.7451 31.5717 47.4793 35.6595C48.2135 39.7473 52.1347 43.0695 56.2224 43.0695H85.7481C88.4975 43.0695 90.3201 40.8408 89.8254 38.0913C89.5398 36.7328 88.8099 35.5081 87.751 34.6105C86.6921 33.7128 85.3645 33.1933 83.9776 33.1339Z" fill="#F5F5F5"/>
<path d="M203.289 34.8217C202.294 34.805 201.326 35.1407 200.555 35.7695C200.718 34.9092 200.718 34.0261 200.555 33.1658C199.821 29.078 195.905 25.761 191.812 25.761C190.648 25.7481 189.502 26.0485 188.495 26.6306C186.933 23.8238 183.871 21.8242 180.684 21.8242C176.591 21.8242 173.873 25.1413 174.612 29.2291C174.676 29.5634 174.76 29.8937 174.862 30.2185C174.212 30.0426 173.541 29.9515 172.868 29.9477C168.78 29.9477 166.062 33.2648 166.801 37.3577C167.54 41.4507 171.472 44.7834 175.565 44.7834H205.085C207.835 44.7834 209.657 42.5547 209.163 39.8104C208.882 38.442 208.151 37.207 207.086 36.3028C206.022 35.3985 204.685 34.8771 203.289 34.8217Z" fill="#F5F5F5"/>
<path d="M219.229 28.2343C218.813 28.2258 218.409 28.3662 218.088 28.63C218.156 28.2739 218.156 27.9082 218.088 27.5521C217.916 26.7028 217.462 25.9364 216.801 25.3762C216.14 24.816 215.309 24.4947 214.443 24.4641C213.957 24.457 213.478 24.5831 213.058 24.8287C212.737 24.2417 212.27 23.7483 211.701 23.3968C211.132 23.0453 210.482 22.8478 209.814 22.8238C209.427 22.8102 209.043 22.8859 208.691 23.045C208.339 23.2041 208.029 23.4424 207.784 23.7412C207.539 24.0401 207.366 24.3914 207.279 24.7679C207.192 25.1444 207.194 25.5358 207.283 25.9118C207.31 26.0508 207.344 26.1882 207.387 26.3232C207.117 26.2487 206.839 26.2102 206.559 26.2086C206.173 26.1939 205.788 26.2689 205.435 26.4276C205.083 26.5864 204.772 26.8247 204.526 27.1238C204.281 27.4229 204.109 27.7748 204.022 28.1517C203.936 28.5287 203.938 28.9205 204.028 29.2966C204.202 30.1449 204.656 30.9102 205.317 31.4693C205.978 32.0285 206.808 32.349 207.673 32.3793H219.973C220.233 32.3882 220.492 32.3369 220.729 32.2292C220.966 32.1216 221.174 31.9607 221.339 31.759C221.503 31.5573 221.619 31.3203 221.676 31.0666C221.734 30.8129 221.732 30.5493 221.671 30.2964C221.551 29.7301 221.246 29.2199 220.803 28.8464C220.361 28.473 219.807 28.2576 219.229 28.2343Z" fill="#F0F0F0"/>
<path d="M143.509 53.2344V48.2041H133.344V53.2344H116.482V171.577H145.966V53.2344H143.509Z" fill="#F0F0F0"/>
<path d="M130.361 59.5879H126.008V63.9412H130.361V59.5879Z" fill="#FAFAFA"/>
<path d="M136.443 59.5879H132.09V63.9412H136.443V59.5879Z" fill="#FAFAFA"/>
<path d="M124.279 66.1543H119.926V70.5076H124.279V66.1543Z" fill="#FAFAFA"/>
<path d="M130.361 66.1543H126.008V70.5076H130.361V66.1543Z" fill="#FAFAFA"/>
<path d="M142.525 66.1543H138.172V70.5076H142.525V66.1543Z" fill="#FAFAFA"/>
<path d="M124.279 72.7266H119.926V77.0799H124.279V72.7266Z" fill="#FAFAFA"/>
<path d="M136.443 72.7256H132.09V77.0789H136.443V72.7256Z" fill="#FAFAFA"/>
<path d="M142.525 72.7256H138.172V77.0789H142.525V72.7256Z" fill="#FAFAFA"/>
<path d="M124.279 85.8594H119.926V90.2127H124.279V85.8594Z" fill="#FAFAFA"/>
<path d="M136.443 85.8584H132.09V90.2117H136.443V85.8584Z" fill="#FAFAFA"/>
<path d="M124.279 92.4258H119.926V96.7791H124.279V92.4258Z" fill="#FAFAFA"/>
<path d="M130.361 92.4258H126.008V96.7791H130.361V92.4258Z" fill="#FAFAFA"/>
<path d="M142.525 92.4248H138.172V96.7781H142.525V92.4248Z" fill="#FAFAFA"/>
<path d="M124.279 125.221H119.926V129.574H124.279V125.221Z" fill="#FAFAFA"/>
<path d="M130.361 125.221H126.008V129.574H130.361V125.221Z" fill="#FAFAFA"/>
<path d="M142.525 125.221H138.172V129.574H142.525V125.221Z" fill="#FAFAFA"/>
<path d="M124.279 131.787H119.926V136.14H124.279V131.787Z" fill="#FAFAFA"/>
<path d="M136.443 131.787H132.09V136.14H136.443V131.787Z" fill="#FAFAFA"/>
<path d="M142.525 131.787H138.172V136.14H142.525V131.787Z" fill="#FAFAFA"/>
<path d="M124.279 144.926H119.926V149.279H124.279V144.926Z" fill="#FAFAFA"/>
<path d="M136.443 144.926H132.09V149.279H136.443V144.926Z" fill="#FAFAFA"/>
<path d="M124.279 151.492H119.926V155.846H124.279V151.492Z" fill="#FAFAFA"/>
<path d="M130.361 151.492H126.008V155.846H130.361V151.492Z" fill="#FAFAFA"/>
<path d="M142.525 151.492H138.172V155.846H142.525V151.492Z" fill="#FAFAFA"/>
<path d="M142.525 98.9971H138.172V103.35H142.525V98.9971Z" fill="#FAFAFA"/>
<path d="M124.279 105.563H119.926V109.917H124.279V105.563Z" fill="#FAFAFA"/>
<path d="M130.361 105.563H126.008V109.917H130.361V105.563Z" fill="#FAFAFA"/>
<path d="M136.476 112.204L132.123 112.142L132.061 116.494L136.414 116.557L136.476 112.204Z" fill="#FAFAFA"/>
<path d="M142.556 112.291L138.203 112.229L138.141 116.581L142.494 116.644L142.556 112.291Z" fill="#FAFAFA"/>
<path d="M124.279 118.696H119.926V123.05H124.279V118.696Z" fill="#FAFAFA"/>
<path d="M200.087 75.7876V71.7207H208.309V75.7876H221.963V171.577H198.098V75.7876H200.087Z" fill="#F0F0F0"/>
<path d="M210.73 84.458H214.256V80.9326H210.73V84.458Z" fill="#FAFAFA"/>
<path d="M205.805 84.458H209.33V80.9326H205.805V84.458Z" fill="#FAFAFA"/>
<path d="M215.652 89.7744H219.178V86.249H215.652V89.7744Z" fill="#FAFAFA"/>
<path d="M210.73 89.7744H214.256V86.249H210.73V89.7744Z" fill="#FAFAFA"/>
<path d="M200.879 89.7744H204.404V86.249H200.879V89.7744Z" fill="#FAFAFA"/>
<path d="M215.652 95.0918H219.178V91.5664H215.652V95.0918Z" fill="#FAFAFA"/>
<path d="M205.805 95.0918H209.33V91.5664H205.805V95.0918Z" fill="#FAFAFA"/>
<path d="M200.879 95.0918H204.404V91.5664H200.879V95.0918Z" fill="#FAFAFA"/>
<path d="M215.652 105.72H219.178V102.194H215.652V105.72Z" fill="#FAFAFA"/>
<path d="M205.805 105.72H209.33V102.194H205.805V105.72Z" fill="#FAFAFA"/>
<path d="M215.652 111.041H219.178V107.516H215.652V111.041Z" fill="#FAFAFA"/>
<path d="M210.73 111.041H214.256V107.516H210.73V111.041Z" fill="#FAFAFA"/>
<path d="M200.879 111.041H204.404V107.516H200.879V111.041Z" fill="#FAFAFA"/>
<path d="M215.652 137.584H219.178V134.059H215.652V137.584Z" fill="#FAFAFA"/>
<path d="M210.73 137.583H214.256V134.058H210.73V137.583Z" fill="#FAFAFA"/>
<path d="M200.879 137.583H204.404V134.058H200.879V137.583Z" fill="#FAFAFA"/>
<path d="M215.652 142.895H219.178V139.369H215.652V142.895Z" fill="#FAFAFA"/>
<path d="M205.805 142.895H209.33V139.369H205.805V142.895Z" fill="#FAFAFA"/>
<path d="M200.879 142.895H204.404V139.369H200.879V142.895Z" fill="#FAFAFA"/>
<path d="M215.652 153.533H219.178V150.008H215.652V153.533Z" fill="#FAFAFA"/>
<path d="M205.805 153.533H209.33V150.008H205.805V153.533Z" fill="#FAFAFA"/>
<path d="M215.652 158.85H219.178V155.324H215.652V158.85Z" fill="#FAFAFA"/>
<path d="M210.73 158.85H214.256V155.324H210.73V158.85Z" fill="#FAFAFA"/>
<path d="M200.879 158.85H204.404V155.324H200.879V158.85Z" fill="#FAFAFA"/>
<path d="M200.879 116.358H204.404V112.833H200.879V116.358Z" fill="#FAFAFA"/>
<path d="M215.652 121.67H219.178V118.145H215.652V121.67Z" fill="#FAFAFA"/>
<path d="M210.73 121.67H214.256V118.145H210.73V121.67Z" fill="#FAFAFA"/>
<path d="M205.836 127.04L209.361 126.989L209.311 123.464L205.786 123.515L205.836 127.04Z" fill="#FAFAFA"/>
<path d="M200.903 127.121L204.428 127.07L204.377 123.545L200.852 123.596L200.903 127.121Z" fill="#FAFAFA"/>
<path d="M215.652 132.303H219.178V128.777H215.652V132.303Z" fill="#FAFAFA"/>
<path d="M150.441 76.751H158.585H172.098V171.577H148.473V76.751H150.441Z" fill="#EBEBEB"/>
<path d="M160.98 85.333H164.469V81.8441H160.98V85.333Z" fill="#FAFAFA"/>
<path d="M156.105 85.333H159.594V81.8441H156.105V85.333Z" fill="#FAFAFA"/>
<path d="M165.849 90.5977H169.338V87.1087H165.849V90.5977Z" fill="#FAFAFA"/>
<path d="M160.98 90.5977H164.469V87.1087H160.98V90.5977Z" fill="#FAFAFA"/>
<path d="M151.232 90.5977H154.721V87.1087H151.232V90.5977Z" fill="#FAFAFA"/>
<path d="M165.849 95.8564H169.338V92.3675H165.849V95.8564Z" fill="#FAFAFA"/>
<path d="M156.105 95.8574H159.594V92.3685H156.105V95.8574Z" fill="#FAFAFA"/>
<path d="M151.232 95.8564H154.721V92.3675H151.232V95.8564Z" fill="#FAFAFA"/>
<path d="M165.849 106.387H169.338V102.898H165.849V106.387Z" fill="#FAFAFA"/>
<path d="M156.105 106.387H159.594V102.898H156.105V106.387Z" fill="#FAFAFA"/>
<path d="M165.849 111.646H169.338V108.157H165.849V111.646Z" fill="#FAFAFA"/>
<path d="M160.98 111.646H164.469V108.157H160.98V111.646Z" fill="#FAFAFA"/>
<path d="M151.232 111.646H154.721V108.157H151.232V111.646Z" fill="#FAFAFA"/>
<path d="M165.849 137.922H169.338V134.433H165.849V137.922Z" fill="#FAFAFA"/>
<path d="M160.98 137.922H164.469V134.433H160.98V137.922Z" fill="#FAFAFA"/>
<path d="M151.232 137.922H154.721V134.433H151.232V137.922Z" fill="#FAFAFA"/>
<path d="M165.849 143.187H169.338V139.698H165.849V143.187Z" fill="#FAFAFA"/>
<path d="M156.105 143.187H159.594V139.698H156.105V143.187Z" fill="#FAFAFA"/>
<path d="M151.232 143.187H154.721V139.698H151.232V143.187Z" fill="#FAFAFA"/>
<path d="M165.849 153.71H169.338V150.221H165.849V153.71Z" fill="#FAFAFA"/>
<path d="M156.105 153.711H159.594V150.222H156.105V153.711Z" fill="#FAFAFA"/>
<path d="M165.849 158.97H169.338V155.481H165.849V158.97Z" fill="#FAFAFA"/>
<path d="M160.98 158.97H164.469V155.481H160.98V158.97Z" fill="#FAFAFA"/>
<path d="M151.232 158.97H154.721V155.481H151.232V158.97Z" fill="#FAFAFA"/>
<path d="M151.232 116.91H154.721V113.421H151.232V116.91Z" fill="#FAFAFA"/>
<path d="M165.849 122.17H169.338V118.681H165.849V122.17Z" fill="#FAFAFA"/>
<path d="M160.98 122.17H164.469V118.681H160.98V122.17Z" fill="#FAFAFA"/>
<path d="M156.136 127.495L159.625 127.445L159.575 123.957L156.086 124.007L156.136 127.495Z" fill="#FAFAFA"/>
<path d="M151.256 127.56L154.744 127.51L154.694 124.021L151.206 124.071L151.256 127.56Z" fill="#FAFAFA"/>
<path d="M165.849 132.699H169.338V129.21H165.849V132.699Z" fill="#FAFAFA"/>
<path d="M41.4189 76.751H49.558H63.0762V171.577H39.4453V76.751H41.4189Z" fill="#F0F0F0"/>
<path d="M51.9544 85.333H55.4434V81.8441H51.9544V85.333Z" fill="#FAFAFA"/>
<path d="M47.0794 85.333H50.5684V81.8441H47.0794V85.333Z" fill="#FAFAFA"/>
<path d="M56.8216 90.5977H60.3105V87.1087H56.8216V90.5977Z" fill="#FAFAFA"/>
<path d="M51.9544 90.5977H55.4434V87.1087H51.9544V90.5977Z" fill="#FAFAFA"/>
<path d="M42.2064 90.5977H45.6953V87.1087H42.2064V90.5977Z" fill="#FAFAFA"/>
<path d="M56.8216 95.8574H60.3105V92.3685H56.8216V95.8574Z" fill="#FAFAFA"/>
<path d="M47.0794 95.8564H50.5684V92.3675H47.0794V95.8564Z" fill="#FAFAFA"/>
<path d="M42.2064 95.8574H45.6953V92.3685H42.2064V95.8574Z" fill="#FAFAFA"/>
<path d="M56.8216 106.387H60.3105V102.898H56.8216V106.387Z" fill="#FAFAFA"/>
<path d="M47.0794 106.386H50.5684V102.897H47.0794V106.386Z" fill="#FAFAFA"/>
<path d="M56.8216 111.646H60.3105V108.157H56.8216V111.646Z" fill="#FAFAFA"/>
<path d="M51.9544 111.646H55.4434V108.157H51.9544V111.646Z" fill="#FAFAFA"/>
<path d="M42.2064 111.646H45.6953V108.157H42.2064V111.646Z" fill="#FAFAFA"/>
<path d="M56.8216 137.922H60.3105V134.433H56.8216V137.922Z" fill="#FAFAFA"/>
<path d="M51.9544 137.922H55.4434V134.433H51.9544V137.922Z" fill="#FAFAFA"/>
<path d="M42.2064 137.922H45.6953V134.433H42.2064V137.922Z" fill="#FAFAFA"/>
<path d="M56.8216 143.187H60.3105V139.698H56.8216V143.187Z" fill="#FAFAFA"/>
<path d="M47.0794 143.187H50.5684V139.698H47.0794V143.187Z" fill="#FAFAFA"/>
<path d="M42.2064 143.187H45.6953V139.698H42.2064V143.187Z" fill="#FAFAFA"/>
<path d="M56.8216 153.711H60.3105V150.222H56.8216V153.711Z" fill="#FAFAFA"/>
<path d="M47.0794 153.71H50.5684V150.221H47.0794V153.71Z" fill="#FAFAFA"/>
<path d="M56.8216 158.97H60.3105V155.481H56.8216V158.97Z" fill="#FAFAFA"/>
<path d="M51.9544 158.97H55.4434V155.481H51.9544V158.97Z" fill="#FAFAFA"/>
<path d="M42.2064 158.97H45.6953V155.481H42.2064V158.97Z" fill="#FAFAFA"/>
<path d="M42.2064 116.91H45.6953V113.421H42.2064V116.91Z" fill="#FAFAFA"/>
<path d="M56.8216 122.17H60.3105V118.681H56.8216V122.17Z" fill="#FAFAFA"/>
<path d="M51.9544 122.17H55.4434V118.681H51.9544V122.17Z" fill="#FAFAFA"/>
<path d="M47.1091 127.496L50.5977 127.446L50.5477 123.958L47.0592 124.008L47.1091 127.496Z" fill="#FAFAFA"/>
<path d="M42.2321 127.562L45.7207 127.512L45.6708 124.023L42.1822 124.073L42.2321 127.562Z" fill="#FAFAFA"/>
<path d="M56.8216 132.699H60.3105V129.21H56.8216V132.699Z" fill="#FAFAFA"/>
<path d="M88.0254 171.577H113.979V61.749L88.0254 64.5245V171.577Z" fill="#F0F0F0"/>
<path d="M105.486 73.4648H112.578V66.3724H105.486V73.4648Z" fill="#FAFAFA"/>
<path d="M97.4545 73.4648H104.547V66.3724H97.4545V73.4648Z" fill="#F0F0F0"/>
<path d="M89.4193 73.4648H96.5117V66.3724H89.4193V73.4648Z" fill="#FAFAFA"/>
<path d="M105.486 81.3906H112.578V74.2982H105.486V81.3906Z" fill="#FAFAFA"/>
<path d="M97.4545 81.3906H104.547V74.2982H97.4545V81.3906Z" fill="#FAFAFA"/>
<path d="M89.4193 81.3906H96.5117V74.2982H89.4193V81.3906Z" fill="#FAFAFA"/>
<path d="M105.486 89.3164H112.578V82.224H105.486V89.3164Z" fill="#FAFAFA"/>
<path d="M97.4545 89.3164H104.547V82.224H97.4545V89.3164Z" fill="#F0F0F0"/>
<path d="M89.4193 89.3164H96.5117V82.224H89.4193V89.3164Z" fill="#FAFAFA"/>
<path d="M105.486 97.2363H112.578V90.1439H105.486V97.2363Z" fill="#F0F0F0"/>
<path d="M97.4545 97.2363H104.547V90.1439H97.4545V97.2363Z" fill="#FAFAFA"/>
<path d="M89.4193 97.2363H96.5117V90.1439H89.4193V97.2363Z" fill="#FAFAFA"/>
<path d="M105.486 105.162H112.578V98.0697H105.486V105.162Z" fill="#FAFAFA"/>
<path d="M97.4545 105.162H104.547V98.0697H97.4545V105.162Z" fill="#FAFAFA"/>
<path d="M89.4193 105.162H96.5117V98.0697H89.4193V105.162Z" fill="#F0F0F0"/>
<path d="M105.486 113.078H112.578V105.986H105.486V113.078Z" fill="#FAFAFA"/>
<path d="M97.4545 113.078H104.547V105.986H97.4545V113.078Z" fill="#F0F0F0"/>
<path d="M89.4193 113.078H96.5117V105.986H89.4193V113.078Z" fill="#FAFAFA"/>
<path d="M105.486 121.003H112.578V113.911H105.486V121.003Z" fill="#F0F0F0"/>
<path d="M97.4545 121.003H104.547V113.911H97.4545V121.003Z" fill="#F0F0F0"/>
<path d="M89.4193 121.003H96.5117V113.911H89.4193V121.003Z" fill="#FAFAFA"/>
<path d="M105.486 128.929H112.578V121.836H105.486V128.929Z" fill="#FAFAFA"/>
<path d="M97.4545 128.929H104.547V121.836H97.4545V128.929Z" fill="#F0F0F0"/>
<path d="M89.4193 128.929H96.5117V121.836H89.4193V128.929Z" fill="#FAFAFA"/>
<path d="M105.486 136.849H112.578V129.756H105.486V136.849Z" fill="#FAFAFA"/>
<path d="M97.4545 136.849H104.547V129.756H97.4545V136.849Z" fill="#FAFAFA"/>
<path d="M89.4193 136.85H96.5117V129.757H89.4193V136.85Z" fill="#FAFAFA"/>
<path d="M105.486 144.77H112.578V137.677H105.486V144.77Z" fill="#F0F0F0"/>
<path d="M97.4545 144.77H104.547V137.677H97.4545V144.77Z" fill="#FAFAFA"/>
<path d="M89.4193 144.77H96.5117V137.677H89.4193V144.77Z" fill="#F0F0F0"/>
<path d="M105.486 152.695H112.578V145.603H105.486V152.695Z" fill="#FAFAFA"/>
<path d="M97.4545 152.695H104.547V145.603H97.4545V152.695Z" fill="#F0F0F0"/>
<path d="M89.4193 152.695H96.5117V145.603H89.4193V152.695Z" fill="#FAFAFA"/>
<path d="M105.486 160.615H112.578V153.523H105.486V160.615Z" fill="#F0F0F0"/>
<path d="M97.4545 160.615H104.547V153.523H97.4545V160.615Z" fill="#FAFAFA"/>
<path d="M89.4193 160.615H96.5117V153.523H89.4193V160.615Z" fill="#FAFAFA"/>
<path d="M174.602 171.577H195.608V82.6719L174.602 84.9215V171.577Z" fill="#F0F0F0"/>
<path d="M188.735 92.1592H194.479V86.4155H188.735V92.1592Z" fill="#FAFAFA"/>
<path d="M182.231 92.1592H187.975V86.4155H182.231V92.1592Z" fill="#F0F0F0"/>
<path d="M175.727 92.1592H181.471V86.4155H175.727V92.1592Z" fill="#FAFAFA"/>
<path d="M188.735 98.5703H194.479V92.8266H188.735V98.5703Z" fill="#FAFAFA"/>
<path d="M182.231 98.5703H187.975V92.8266H182.231V98.5703Z" fill="#FAFAFA"/>
<path d="M175.727 98.5693H181.471V92.8256H175.727V98.5693Z" fill="#FAFAFA"/>
<path d="M188.735 104.99H194.479V99.2465H188.735V104.99Z" fill="#FAFAFA"/>
<path d="M182.231 104.99H187.975V99.2465H182.231V104.99Z" fill="#F0F0F0"/>
<path d="M175.727 104.99H181.471V99.2465H175.727V104.99Z" fill="#FAFAFA"/>
<path d="M188.735 111.4H194.479V105.657H188.735V111.4Z" fill="#F0F0F0"/>
<path d="M182.231 111.4H187.975V105.657H182.231V111.4Z" fill="#FAFAFA"/>
<path d="M175.727 111.4H181.471V105.657H175.727V111.4Z" fill="#FAFAFA"/>
<path d="M188.735 117.811H194.479V112.067H188.735V117.811Z" fill="#FAFAFA"/>
<path d="M182.231 117.811H187.975V112.067H182.231V117.811Z" fill="#FAFAFA"/>
<path d="M175.727 117.811H181.471V112.067H175.727V117.811Z" fill="#F0F0F0"/>
<path d="M188.735 124.227H194.479V118.483H188.735V124.227Z" fill="#FAFAFA"/>
<path d="M182.231 124.227H187.975V118.483H182.231V124.227Z" fill="#F0F0F0"/>
<path d="M175.727 124.227H181.471V118.483H175.727V124.227Z" fill="#FAFAFA"/>
<path d="M188.735 130.637H194.479V124.893H188.735V130.637Z" fill="#F0F0F0"/>
<path d="M182.231 130.637H187.975V124.893H182.231V130.637Z" fill="#F0F0F0"/>
<path d="M175.727 130.637H181.471V124.893H175.727V130.637Z" fill="#FAFAFA"/>
<path d="M188.735 137.053H194.479V131.309H188.735V137.053Z" fill="#FAFAFA"/>
<path d="M182.231 137.053H187.975V131.309H182.231V137.053Z" fill="#F0F0F0"/>
<path d="M175.727 137.052H181.471V131.308H175.727V137.052Z" fill="#FAFAFA"/>
<path d="M188.735 143.462H194.479V137.718H188.735V143.462Z" fill="#FAFAFA"/>
<path d="M182.231 143.462H187.975V137.718H182.231V143.462Z" fill="#FAFAFA"/>
<path d="M175.727 143.462H181.471V137.718H175.727V143.462Z" fill="#FAFAFA"/>
<path d="M188.735 149.878H194.479V144.134H188.735V149.878Z" fill="#F0F0F0"/>
<path d="M182.231 149.878H187.975V144.134H182.231V149.878Z" fill="#FAFAFA"/>
<path d="M175.727 149.878H181.471V144.134H175.727V149.878Z" fill="#F0F0F0"/>
<path d="M188.735 156.288H194.479V150.544H188.735V156.288Z" fill="#FAFAFA"/>
<path d="M182.231 156.288H187.975V150.544H182.231V156.288Z" fill="#F0F0F0"/>
<path d="M175.727 156.288H181.471V150.544H175.727V156.288Z" fill="#FAFAFA"/>
<path d="M188.735 162.703H194.479V156.959H188.735V162.703Z" fill="#F0F0F0"/>
<path d="M182.231 162.703H187.975V156.959H182.231V162.703Z" fill="#FAFAFA"/>
<path d="M175.727 162.703H181.471V156.959H175.727V162.703Z" fill="#FAFAFA"/>
<path d="M64.7578 171.786H85.7694V82.8809L64.7578 85.1304V171.786Z" fill="#F5F5F5"/>
<path d="M78.8911 92.3682H84.6348V86.6245H78.8911V92.3682Z" fill="#FAFAFA"/>
<path d="M72.393 92.3672H78.1367V86.6235H72.393V92.3672Z" fill="#F0F0F0"/>
<path d="M65.8891 92.3672H71.6328V86.6235H65.8891V92.3672Z" fill="#FAFAFA"/>
<path d="M78.8911 98.7783H84.6348V93.0346H78.8911V98.7783Z" fill="#FAFAFA"/>
<path d="M72.393 98.7783H78.1367V93.0346H72.393V98.7783Z" fill="#FAFAFA"/>
<path d="M65.8891 98.7783H71.6328V93.0346H65.8891V98.7783Z" fill="#FAFAFA"/>
<path d="M78.8911 105.193H84.6348V99.4497H78.8911V105.193Z" fill="#FAFAFA"/>
<path d="M72.393 105.193H78.1367V99.4497H72.393V105.193Z" fill="#F0F0F0"/>
<path d="M65.8891 105.193H71.6328V99.4497H65.8891V105.193Z" fill="#FAFAFA"/>
<path d="M78.8911 111.609H84.6348V105.866H78.8911V111.609Z" fill="#F0F0F0"/>
<path d="M72.393 111.609H78.1367V105.866H72.393V111.609Z" fill="#FAFAFA"/>
<path d="M65.8891 111.609H71.6328V105.866H65.8891V111.609Z" fill="#FAFAFA"/>
<path d="M78.8911 118.024H84.6348V112.281H78.8911V118.024Z" fill="#FAFAFA"/>
<path d="M72.393 118.024H78.1367V112.281H72.393V118.024Z" fill="#FAFAFA"/>
<path d="M65.8891 118.024H71.6328V112.281H65.8891V118.024Z" fill="#F0F0F0"/>
<path d="M78.8911 124.435H84.6348V118.691H78.8911V124.435Z" fill="#FAFAFA"/>
<path d="M72.393 124.435H78.1367V118.691H72.393V124.435Z" fill="#F0F0F0"/>
<path d="M65.8891 124.435H71.6328V118.691H65.8891V124.435Z" fill="#FAFAFA"/>
<path d="M78.8911 130.845H84.6348V125.101H78.8911V130.845Z" fill="#F0F0F0"/>
<path d="M72.393 130.845H78.1367V125.101H72.393V130.845Z" fill="#F0F0F0"/>
<path d="M65.8891 130.845H71.6328V125.101H65.8891V130.845Z" fill="#FAFAFA"/>
<path d="M78.8911 137.261H84.6348V131.517H78.8911V137.261Z" fill="#FAFAFA"/>
<path d="M72.393 137.26H78.1367V131.516H72.393V137.26Z" fill="#F0F0F0"/>
<path d="M65.8891 137.26H71.6328V131.516H65.8891V137.26Z" fill="#FAFAFA"/>
<path d="M78.8911 143.671H84.6348V137.927H78.8911V143.671Z" fill="#FAFAFA"/>
<path d="M72.393 143.67H78.1367V137.926H72.393V143.67Z" fill="#FAFAFA"/>
<path d="M65.8891 143.67H71.6328V137.926H65.8891V143.67Z" fill="#FAFAFA"/>
<path d="M78.8911 150.086H84.6348V144.342H78.8911V150.086Z" fill="#F0F0F0"/>
<path d="M72.393 150.086H78.1367V144.342H72.393V150.086Z" fill="#FAFAFA"/>
<path d="M65.8891 150.086H71.6328V144.342H65.8891V150.086Z" fill="#F0F0F0"/>
<path d="M78.8911 156.496H84.6348V150.752H78.8911V156.496Z" fill="#FAFAFA"/>
<path d="M72.393 156.496H78.1367V150.752H72.393V156.496Z" fill="#F0F0F0"/>
<path d="M65.8891 156.496H71.6328V150.752H65.8891V156.496Z" fill="#FAFAFA"/>
<path d="M78.8911 162.912H84.6348V157.168H78.8911V162.912Z" fill="#F0F0F0"/>
<path d="M72.393 162.912H78.1367V157.168H72.393V162.912Z" fill="#FAFAFA"/>
<path d="M65.8891 162.912H71.6328V157.168H65.8891V162.912Z" fill="#FAFAFA"/>
<path d="M171.076 32.6403C170.408 32.6289 169.757 32.8539 169.238 33.2756C169.35 32.6995 169.35 32.1072 169.238 31.5311C168.953 30.1622 168.218 28.9283 167.149 28.0267C166.081 27.1252 164.741 26.6081 163.343 26.5581C162.558 26.549 161.785 26.7504 161.104 27.1413C160.584 26.1928 159.826 25.3956 158.905 24.8278C157.984 24.2601 156.931 23.9412 155.85 23.9023C153.09 23.9023 151.262 26.1415 151.757 28.8962C151.799 29.122 151.856 29.3447 151.929 29.5627C151.489 29.445 151.036 29.3837 150.58 29.3805C147.825 29.3805 145.992 31.6144 146.492 34.3743C146.773 35.7462 147.505 36.9842 148.573 37.8898C149.641 38.7953 150.983 39.316 152.382 39.3682H172.284C172.704 39.3826 173.12 39.3001 173.503 39.1272C173.885 38.9543 174.222 38.6956 174.488 38.3711C174.754 38.0467 174.942 37.6653 175.036 37.2566C175.131 36.8479 175.13 36.4229 175.034 36.0146C174.849 35.0892 174.359 34.2528 173.641 33.6406C172.923 33.0283 172.019 32.6759 171.076 32.6403Z" fill="#FAFAFA"/>
<path d="M130.184 192C185.945 192 231.149 189.361 231.149 186.106C231.149 182.85 185.945 180.211 130.184 180.211C74.4224 180.211 29.2188 182.85 29.2188 186.106C29.2188 189.361 74.4224 192 130.184 192Z" fill="#F5F5F5"/>
<path d="M190.615 100.429H186.116C184.859 100.428 183.655 99.9279 182.766 99.0395C181.878 98.1512 181.378 96.9467 181.377 95.6903V91.186C181.378 89.9296 181.878 88.7251 182.766 87.8367C183.655 86.9483 184.859 86.4486 186.116 86.4473H190.615C191.872 86.4486 193.077 86.9482 193.966 87.8364C194.855 88.7246 195.356 89.9291 195.359 91.186V95.6903C195.356 96.9471 194.855 98.1516 193.966 99.0399C193.077 99.9281 191.872 100.428 190.615 100.429ZM186.116 87.8272C185.225 87.8286 184.372 88.1829 183.742 88.8125C183.113 89.4421 182.758 90.2956 182.757 91.186V95.6903C182.757 96.5811 183.111 97.4354 183.741 98.0653C184.371 98.6952 185.225 99.049 186.116 99.049H190.615C191.506 99.049 192.36 98.6952 192.99 98.0653C193.62 97.4354 193.974 96.5811 193.974 95.6903V91.186C193.972 90.2956 193.618 89.4421 192.988 88.8125C192.359 88.1829 191.505 87.8286 190.615 87.8272H186.116Z" fill="#D75337"/>
<g opacity="0.6">
<path d="M190.615 100.429H186.116C184.859 100.428 183.655 99.9279 182.766 99.0395C181.878 98.1512 181.378 96.9467 181.377 95.6903V91.186C181.378 89.9296 181.878 88.7251 182.766 87.8367C183.655 86.9483 184.859 86.4486 186.116 86.4473H190.615C191.872 86.4486 193.077 86.9482 193.966 87.8364C194.855 88.7246 195.356 89.9291 195.359 91.186V95.6903C195.356 96.9471 194.855 98.1516 193.966 99.0399C193.077 99.9281 191.872 100.428 190.615 100.429ZM186.116 87.8272C185.225 87.8286 184.372 88.1829 183.742 88.8125C183.113 89.4421 182.758 90.2956 182.757 91.186V95.6903C182.757 96.5811 183.111 97.4354 183.741 98.0653C184.371 98.6952 185.225 99.049 186.116 99.049H190.615C191.506 99.049 192.36 98.6952 192.99 98.0653C193.62 97.4354 193.974 96.5811 193.974 95.6903V91.186C193.972 90.2956 193.618 89.4421 192.988 88.8125C192.359 88.1829 191.505 87.8286 190.615 87.8272H186.116Z" fill="white"/>
</g>
<path d="M187.877 97.2838L181.311 90.7225L183.263 88.7646L187.877 93.3783L196.235 85.0205L198.188 86.9733L187.877 97.2838Z" fill="#D75337"/>
<path d="M91.4197 50.027H87.4413C86.3389 50.0188 85.2841 49.5772 84.5046 48.7978C83.7251 48.0183 83.2836 46.9634 83.2754 45.8611V41.8775C83.2767 40.7706 83.7152 39.7091 84.4955 38.924C85.2757 38.1389 86.3344 37.6938 87.4413 37.6855H91.4197C92.531 37.6869 93.5964 38.129 94.3823 38.9149C95.1681 39.7007 95.6102 40.7661 95.6116 41.8775V45.8246C95.6123 46.3758 95.5044 46.9217 95.2941 47.4312C95.0838 47.9407 94.7752 48.4037 94.386 48.794C93.9967 49.1842 93.5344 49.4939 93.0254 49.7055C92.5165 49.917 91.9709 50.0263 91.4197 50.027ZM87.4413 38.8832C86.6536 38.8832 85.8981 39.1958 85.3406 39.7523C84.7831 40.3088 84.4693 41.0637 84.4679 41.8514V45.8246C84.4693 46.6123 84.7831 47.3673 85.3406 47.9238C85.8981 48.4803 86.6536 48.7928 87.4413 48.7928H91.4197C92.2069 48.7928 92.9619 48.4801 93.5185 47.9234C94.0751 47.3668 94.3879 46.6118 94.3879 45.8246V41.841C94.3879 41.0538 94.0751 40.2988 93.5185 39.7422C92.9619 39.1855 92.2069 38.8728 91.4197 38.8728L87.4413 38.8832Z" fill="#D75337"/>
<g opacity="0.6">
<path d="M91.4216 50.027H87.4432C86.3409 50.0188 85.286 49.5772 84.5065 48.7978C83.7271 48.0183 83.2855 46.9634 83.2773 45.8611V41.8775C83.2787 40.7706 83.7172 39.7091 84.4974 38.924C85.2776 38.1389 86.3364 37.6938 87.4432 37.6855H91.4216C92.533 37.6869 93.5984 38.129 94.3842 38.9149C95.1701 39.7007 95.6122 40.7661 95.6135 41.8775V45.8246C95.6142 46.3758 95.5063 46.9217 95.296 47.4312C95.0858 47.9407 94.7772 48.4037 94.3879 48.794C93.9987 49.1842 93.5364 49.4939 93.0274 49.7055C92.5184 49.917 91.9728 50.0263 91.4216 50.027ZM87.4432 38.8832C86.6555 38.8832 85.9 39.1958 85.3426 39.7523C84.7851 40.3088 84.4712 41.0637 84.4698 41.8514V45.8246C84.4712 46.6123 84.7851 47.3673 85.3426 47.9238C85.9 48.4803 86.6555 48.7928 87.4432 48.7928H91.4216C92.2088 48.7928 92.9638 48.4801 93.5205 47.9234C94.0771 47.3668 94.3898 46.6118 94.3898 45.8246V41.841C94.3898 41.0538 94.0771 40.2988 93.5205 39.7422C92.9638 39.1855 92.2088 38.8728 91.4216 38.8728L87.4432 38.8832Z" fill="white"/>
</g>
<path d="M88.9943 47.2411L83.1934 41.4401L84.917 39.7113L88.9943 43.7886L96.3836 36.3994L98.1124 38.1283L88.9943 47.2411Z" fill="#D75337"/>
<path d="M208.295 44.0544C204.202 43.0844 200.319 41.3762 196.839 39.0137C193.359 41.3771 189.476 43.0854 185.383 44.0544C183.887 44.4101 182.37 44.6727 180.842 44.8407C180.842 44.9084 180.842 44.9813 180.842 45.049C180.842 59.1088 187.153 68.9247 196.844 76.6003C206.535 68.9247 212.846 59.114 212.846 45.049C212.846 44.9813 212.846 44.9084 212.846 44.8407C211.314 44.6729 209.794 44.4103 208.295 44.0544Z" fill="#D75337"/>
<path opacity="0.1" d="M196.839 39.0137C193.359 41.3771 189.476 43.0854 185.383 44.0544C183.887 44.4101 182.37 44.6727 180.842 44.8407C180.842 44.9084 180.842 44.9813 180.842 45.049C180.842 59.1088 187.153 68.9247 196.844 76.6003L196.839 39.0137Z" fill="black"/>
<g opacity="0.5">
<path d="M196.84 74.0485L196.413 73.684C187.68 66.2062 183.394 57.7807 182.874 47.1578L182.848 46.5745L183.42 46.4756C184.243 46.335 185.066 46.1684 185.858 45.9549C189.613 45.0652 193.205 43.589 196.501 41.5807L196.845 41.3672L197.189 41.5807C200.485 43.5881 204.077 45.0642 207.832 45.9549C208.634 46.1475 209.452 46.3142 210.27 46.4756L210.848 46.5745L210.816 47.1578C210.296 57.7807 206.005 66.2114 197.277 73.684L196.84 74.0485ZM184.217 47.6733C184.821 57.4631 188.847 65.3158 196.84 72.3092C204.833 65.321 208.858 57.4631 209.462 47.6733C208.811 47.5535 208.161 47.4129 207.52 47.2567C203.761 46.3656 200.16 44.9083 196.84 42.9346C193.52 44.9091 189.918 46.3665 186.16 47.2567C185.524 47.4129 184.863 47.5483 184.217 47.6733Z" fill="white"/>
</g>
<path opacity="0.9" d="M196.837 72.3099C188.844 65.3164 184.819 57.4637 184.215 47.6739C184.871 47.549 185.522 47.4136 186.157 47.2573C189.916 46.3672 193.517 44.9098 196.837 42.9353V41.373L196.493 41.5865C193.197 43.5949 189.605 45.0711 185.85 45.9607C185.058 46.1534 184.235 46.32 183.413 46.4815L182.84 46.5804L182.866 47.1636C183.387 57.7866 187.677 66.2121 196.405 73.6898L196.832 74.0543L196.837 72.3099Z" fill="#F0F0F0"/>
<g opacity="0.2">
<path d="M195.932 63.8627L188.928 56.8537L191.011 54.7707L195.932 59.6917L204.852 50.7715L206.94 52.8544L195.932 63.8627Z" fill="#D75337"/>
</g>
<g opacity="0.9">
<path d="M195.932 63.8627L188.928 56.8537L191.011 54.7707L195.932 59.6917L204.852 50.7715L206.94 52.8544L195.932 63.8627Z" fill="white"/>
</g>
<path d="M166.658 38.5029H148.469V55.4112H166.658V38.5029Z" fill="#D75337"/>
<path opacity="0.3" d="M166.658 38.5029H148.469V55.4112H166.658V38.5029Z" fill="white"/>
<path d="M174.729 38.5029H165.637V55.4112H174.729V38.5029Z" fill="#D75337"/>
<path d="M160.414 41.8203H154.701V55.4115H160.414V41.8203Z" fill="#263238"/>
<path d="M156.128 41.8203H154.701V55.4115H156.128V41.8203Z" fill="#D75337"/>
<path d="M155.467 53.1562H108.096V187.714H155.467V53.1562Z" fill="#D75337"/>
<path opacity="0.6" d="M155.467 53.1562H108.096V187.714H155.467V53.1562Z" fill="white"/>
<path d="M154.758 53.1562V73.0535H144.307V77.4641H154.758V94.5182H144.307V98.9288H154.758V115.983H144.307V120.393H154.758V137.448H144.307V141.858H154.758V158.912H144.307V163.323H154.758V187.714H177.155V53.1562H154.758Z" fill="#D75337"/>
<path opacity="0.2" d="M154.758 53.1562V73.0535H144.307V77.4641H154.758V94.5182H144.307V98.9288H154.758V115.983H144.307V120.393H154.758V137.448H144.307V141.858H154.758V158.912H144.307V163.323H154.758V187.714H177.155V53.1562H154.758Z" fill="white"/>
<path d="M144.895 158.912H101.461V163.323H144.895V158.912Z" fill="#D75337"/>
<path d="M144.895 137.447H101.461V141.858H144.895V137.447Z" fill="#D75337"/>
<path d="M144.895 115.983H101.461V120.394H144.895V115.983Z" fill="#D75337"/>
<path d="M144.895 94.5186H101.461V98.9292H144.895V94.5186Z" fill="#D75337"/>
<path d="M144.895 73.0537H101.461V77.4643H144.895V73.0537Z" fill="#D75337"/>
<g opacity="0.4">
<path d="M144.895 158.912H101.461V163.323H144.895V158.912Z" fill="white"/>
<path d="M144.895 137.448H101.461V141.859H144.895V137.448Z" fill="white"/>
<path d="M144.895 115.983H101.461V120.394H144.895V115.983Z" fill="white"/>
<path d="M144.895 94.5186H101.461V98.9292H144.895V94.5186Z" fill="white"/>
<path d="M144.895 73.0537H101.461V77.4643H144.895V73.0537Z" fill="white"/>
</g>
<path d="M145.619 168.145H117.947V187.714H145.619V168.145Z" fill="#D75337"/>
<path d="M123.572 58.3477H112.105V69.8142H123.572V58.3477Z" fill="#D75337"/>
<path d="M137.246 58.3477H125.779V69.8142H137.246V58.3477Z" fill="#D75337"/>
<path opacity="0.7" d="M150.92 58.3477H139.453V69.8142H150.92V58.3477Z" fill="white"/>
<path opacity="0.7" d="M123.572 80.2559H112.105V91.7224H123.572V80.2559Z" fill="white"/>
<path d="M137.246 80.2549H125.779V91.7215H137.246V80.2549Z" fill="#D75337"/>
<path opacity="0.7" d="M150.92 80.2559H139.453V91.7224H150.92V80.2559Z" fill="white"/>
<path opacity="0.7" d="M123.572 101.721H112.105V113.187H123.572V101.721Z" fill="white"/>
<path opacity="0.7" d="M137.246 101.72H125.779V113.186H137.246V101.72Z" fill="white"/>
<path d="M150.92 101.721H139.453V113.187H150.92V101.721Z" fill="#D75337"/>
<path opacity="0.7" d="M123.572 123.185H112.105V134.651H123.572V123.185Z" fill="white"/>
<path d="M137.246 123.185H125.779V134.651H137.246V123.185Z" fill="#D75337"/>
<path opacity="0.7" d="M150.92 123.185H139.453V134.651H150.92V123.185Z" fill="white"/>
<path d="M123.572 144.654H112.105V156.121H123.572V144.654Z" fill="#D75337"/>
<path d="M137.246 144.654H125.779V156.121H137.246V144.654Z" fill="#D75337"/>
<path opacity="0.7" d="M150.92 144.654H139.453V156.121H150.92V144.654Z" fill="white"/>
<path d="M113.314 58.3477H112.105V69.8142H113.314V58.3477Z" fill="#D75337"/>
<path d="M126.987 58.3477H125.779V69.8142H126.987V58.3477Z" fill="#D75337"/>
<path d="M140.661 58.3477H139.453V69.8142H140.661V58.3477Z" fill="#D75337"/>
<path d="M113.314 80.2559H112.105V91.7224H113.314V80.2559Z" fill="#D75337"/>
<path d="M126.987 80.2549H125.779V91.7215H126.987V80.2549Z" fill="#D75337"/>
<path d="M140.661 80.2559H139.453V91.7224H140.661V80.2559Z" fill="#D75337"/>
<path d="M113.314 101.721H112.105V113.187H113.314V101.721Z" fill="#D75337"/>
<path d="M126.987 101.72H125.779V113.186H126.987V101.72Z" fill="#D75337"/>
<path d="M140.661 101.721H139.453V113.187H140.661V101.721Z" fill="#D75337"/>
<path d="M113.314 123.185H112.105V134.651H113.314V123.185Z" fill="#D75337"/>
<path d="M126.987 123.185H125.779V134.651H126.987V123.185Z" fill="#D75337"/>
<path d="M140.661 123.185H139.453V134.651H140.661V123.185Z" fill="#D75337"/>
<path d="M113.314 144.654H112.105V156.121H113.314V144.654Z" fill="#D75337"/>
<path d="M126.987 144.654H125.779V156.121H126.987V144.654Z" fill="#D75337"/>
<path d="M140.661 144.654H139.453V156.121H140.661V144.654Z" fill="#D75337"/>
<g opacity="0.2">
<path d="M113.314 58.3477H112.105V69.8142H113.314V58.3477Z" fill="black"/>
<path d="M126.989 58.3477H125.781V69.8142H126.989V58.3477Z" fill="black"/>
<path d="M140.661 58.3477H139.453V69.8142H140.661V58.3477Z" fill="black"/>
<path d="M113.314 80.2549H112.105V91.7215H113.314V80.2549Z" fill="black"/>
<path d="M126.989 80.2549H125.781V91.7215H126.989V80.2549Z" fill="black"/>
<path d="M140.661 80.2549H139.453V91.7215H140.661V80.2549Z" fill="black"/>
<path d="M113.314 101.72H112.105V113.186H113.314V101.72Z" fill="black"/>
<path d="M126.989 101.719H125.781V113.185H126.989V101.719Z" fill="black"/>
<path d="M140.661 101.719H139.453V113.185H140.661V101.719Z" fill="black"/>
<path d="M113.314 123.185H112.105V134.651H113.314V123.185Z" fill="black"/>
<path d="M126.989 123.184H125.781V134.65H126.989V123.184Z" fill="black"/>
<path d="M140.661 123.184H139.453V134.65H140.661V123.184Z" fill="black"/>
<path d="M113.314 144.654H112.105V156.121H113.314V144.654Z" fill="black"/>
<path d="M126.989 144.654H125.781V156.121H126.989V144.654Z" fill="black"/>
<path d="M140.661 144.654H139.453V156.121H140.661V144.654Z" fill="black"/>
</g>
<path opacity="0.4" d="M144.296 169.468H131.783V187.714H144.296V169.468Z" fill="white"/>
<path opacity="0.7" d="M131.783 169.468H119.27V187.714H131.783V169.468Z" fill="white"/>
<path d="M120.592 169.468H119.27V187.714H120.592V169.468Z" fill="#D75337"/>
<path opacity="0.2" d="M120.592 169.468H119.27V187.714H120.592V169.468Z" fill="black"/>
<path d="M52.5935 80.266C52.8089 79.258 53.1246 78.2741 53.536 77.3291C53.9682 76.2876 54.4577 75.2461 54.9941 74.2046C55.5304 73.1632 56.0928 72.1217 56.6656 71.0802C57.2384 70.0388 57.8685 68.9973 58.4517 68.0287L53.8484 65.0918C53.1194 66.201 52.4997 67.2737 51.8696 68.3933C51.2396 69.5128 50.6615 70.6428 50.1044 71.8041C49.5472 72.9653 49.0629 74.1734 48.589 75.4492C48.0868 76.7944 47.7374 78.1918 47.5476 79.6151C47.5006 80.1013 47.4884 80.5903 47.5111 81.0783H52.4789C52.4928 80.8047 52.5311 80.5328 52.5935 80.266Z" fill="#F9C8B3"/>
<path d="M90.3781 68.8299C89.2228 70.8516 87.9301 72.7915 86.5091 74.6361C86.187 75.045 85.8391 75.4329 85.4676 75.7974C85.1811 76.0917 84.853 76.3426 84.4938 76.542H84.4365C84.4365 76.542 84.2491 76.4274 84.0304 76.2087C83.3393 75.529 82.7326 74.7684 82.2234 73.9435C81.6454 73.0166 81.083 72.0168 80.5571 70.9858C80.0311 69.9547 79.5156 68.9028 79.0365 67.8301C78.5575 66.7574 78.0732 65.6482 77.641 64.6172L72.5742 66.5647C73.0377 67.8145 73.5376 68.9393 74.0635 70.1057C74.5895 71.2722 75.1675 72.4022 75.7871 73.5322C76.4199 74.6871 77.1153 75.8066 77.8701 76.8857C78.2658 77.4377 78.6876 77.9844 79.1563 78.5312C79.6616 79.1242 80.2251 79.665 80.8383 80.1455C81.2073 80.4343 81.6031 80.6871 82.0203 80.9006C82.5506 81.1695 83.123 81.3456 83.7127 81.4213C84.3752 81.4945 85.0458 81.4198 85.6759 81.2026C86.1738 81.0296 86.6426 80.7821 87.0663 80.4683C87.7257 79.9827 88.3145 79.4079 88.8159 78.7603C89.2483 78.2069 89.6415 77.624 89.9928 77.0159C90.6514 75.8779 91.2207 74.6905 91.6956 73.4645C92.1678 72.2762 92.5626 71.0586 92.8777 69.8193L90.3781 68.8299Z" fill="#F9C8B3"/>
<path d="M83.3684 73.23L77.7132 77.4532C77.7132 77.4532 77.4945 77.2136 77.1352 76.797C76.8748 76.495 76.5364 76.0888 76.1458 75.615C73.9483 72.9384 70.7354 68.0487 70.7093 65.6585C70.6677 62.0863 74.3545 61.5603 78.5203 65.2107C80.3117 66.7729 81.249 69.4026 82.1655 71.0221C82.4675 71.5428 82.7227 72.0219 82.9206 72.3864C83.2122 72.9019 83.3684 73.23 83.3684 73.23Z" fill="#263238"/>
<path opacity="0.5" d="M83.3684 73.23L77.7132 77.4532C77.7132 77.4532 77.4945 77.2136 77.1352 76.797C76.8748 76.495 76.5364 76.0888 76.1458 75.615C73.9483 72.9384 70.7354 68.0487 70.7093 65.6585C70.6677 62.0863 74.3545 61.5603 78.5203 65.2107C80.3117 66.7729 81.249 69.4026 82.1655 71.0221C82.4675 71.5428 82.7227 72.0219 82.9206 72.3864C83.2122 72.9019 83.3684 73.23 83.3684 73.23Z" fill="white"/>
<path opacity="0.2" d="M70.6739 66.0703C71.9497 65.2215 72.8818 67.4086 75.4126 69.2572C76.5374 70.0852 79.0057 75.4539 78.8026 76.6412L77.7143 77.4536C77.7143 77.4536 70.6427 69.6269 70.6739 66.0703Z" fill="black"/>
<path d="M89.9395 69.6901L91.9547 66.0449L93.7981 70.8409C93.7981 70.8409 91.5173 72.7468 90.3508 71.4658L89.9395 69.6901Z" fill="#F9C8B3"/>
<path d="M94.2932 66.002L95.1055 69.5898L93.7985 70.8187L91.9551 66.0228L94.2932 66.002Z" fill="#F9C8B3"/>
<path d="M90.2681 69.4083C90.23 68.748 90.0822 68.0986 89.8307 67.4868C89.5183 66.7786 88.7893 66.185 88.9403 65.7944C89.0132 65.6226 89.461 65.5392 89.6433 65.5809C90.0752 65.7814 90.4377 66.1059 90.6847 66.513C90.9295 66.94 91.6116 68.4345 91.6116 68.4345L90.2681 69.4083Z" fill="#F9C8B3"/>
<path d="M70.3819 46.0791C70.3819 46.0791 71.9441 46.8081 71.2202 47.9746C71.3985 48.0959 71.5497 48.2528 71.6643 48.4354C71.779 48.618 71.8546 48.8224 71.8864 49.0357C71.9182 49.249 71.9055 49.4665 71.8491 49.6746C71.7927 49.8827 71.6938 50.0769 71.5587 50.245C71.5587 50.245 71.6472 52.3904 70.3819 51.1458C69.1165 49.9013 68.7363 46.4072 68.7363 46.4072L70.3819 46.0791Z" fill="#263238"/>
<path d="M59.7074 69.346C58.81 71.8354 57.7667 74.2697 56.583 76.6363C56.3279 77.1571 56.0623 77.6413 55.8957 78.0267C55.5572 78.6932 55.3437 79.0994 55.3437 79.0994L48.0898 75.0845C48.0898 75.0845 48.1836 74.7773 48.345 74.267C48.4752 73.8816 48.6366 73.3713 48.8657 72.7881C50.0738 69.346 52.5421 63.2014 54.9583 62.8525C58.5722 62.3005 61.1759 65.0031 59.7074 69.346Z" fill="#263238"/>
<path opacity="0.5" d="M59.7074 69.346C58.81 71.8354 57.7667 74.2697 56.583 76.6363C56.3279 77.1571 56.0623 77.6413 55.8957 78.0267C55.5572 78.6932 55.3437 79.0994 55.3437 79.0994L48.0898 75.0845C48.0898 75.0845 48.1836 74.7773 48.345 74.267C48.4752 73.8816 48.6366 73.3713 48.8657 72.7881C50.0738 69.346 52.5421 63.2014 54.9583 62.8525C58.5722 62.3005 61.1759 65.0031 59.7074 69.346Z" fill="white"/>
<path d="M86.7236 183.277L90.1292 182.173L88.015 174.144L84.6094 175.248L86.7236 183.277Z" fill="#CE7A63"/>
<path d="M90.1788 181.736L86.3514 182.975C86.3188 182.984 86.2882 183 86.2616 183.021C86.235 183.042 86.2128 183.068 86.1963 183.097C86.1799 183.127 86.1694 183.159 86.1657 183.193C86.1619 183.227 86.1648 183.261 86.1743 183.293L86.9711 186.381C87.0225 186.54 87.1344 186.672 87.2825 186.749C87.4306 186.826 87.603 186.842 87.7626 186.792C89.0904 186.334 89.6997 186.053 91.4077 185.506C92.4492 185.168 96.8806 183.85 98.3074 183.387C99.7343 182.923 99.2396 181.523 98.5886 181.59C95.6882 181.897 92.0638 182.2 90.8609 181.752C90.6418 181.67 90.4015 181.665 90.1788 181.736Z" fill="#263238"/>
<path opacity="0.2" d="M84.6094 175.248L88.015 174.144L89.1033 178.283L85.6977 179.387L84.6094 175.248Z" fill="black"/>
<path d="M76.3081 93.9551C76.3081 93.9551 81.1405 123.116 82.5569 133.265C84.1191 144.399 90.2898 176.96 90.2898 176.96L83.9681 178.705C83.9681 178.705 74.9855 147.153 72.3818 136.327C69.6219 124.585 63.5293 93.9551 63.5293 93.9551H76.3081Z" fill="#263238"/>
<path opacity="0.4" d="M68.5424 105.906C71.0159 112.082 71.2971 122.57 70.2921 126.887C68.7768 119.82 67.0375 111.369 65.6992 104.797C66.1783 103.105 67.0427 102.152 68.5424 105.906Z" fill="black"/>
<path d="M83.826 178.83L90.5955 176.966L90.4653 174.206L82.8418 176.841L83.826 178.83Z" fill="#263238"/>
<path d="M91.5816 181.923C91.2719 182.011 90.9545 182.068 90.6338 182.095C90.6175 182.096 90.6013 182.093 90.5867 182.085C90.572 182.078 90.5596 182.067 90.5505 182.053C90.5418 182.039 90.5371 182.023 90.5371 182.007C90.5371 181.99 90.5418 181.974 90.5505 181.96C90.6338 181.85 91.3837 180.877 91.8524 180.918C91.9053 180.92 91.9568 180.937 92.0016 180.965C92.0464 180.993 92.0829 181.033 92.1075 181.08C92.1552 181.146 92.1842 181.224 92.1916 181.306C92.1989 181.387 92.1843 181.469 92.1492 181.543C92.0118 181.734 91.8103 181.869 91.5816 181.923ZM90.8109 181.923C91.4618 181.845 91.9044 181.684 92.0138 181.475C92.034 181.426 92.0412 181.373 92.0348 181.32C92.0284 181.267 92.0087 181.217 91.9773 181.173C91.9671 181.149 91.9497 181.128 91.9275 181.113C91.9052 181.098 91.8791 181.09 91.8524 181.09C91.6024 181.059 91.1285 181.528 90.8109 181.908V181.923Z" fill="#D75337"/>
<path d="M90.6483 182.09H90.6066C90.5924 182.088 90.5791 182.082 90.5681 182.073C90.557 182.064 90.5488 182.052 90.5441 182.038C90.5441 181.996 90.1328 181.043 90.3671 180.601C90.3966 180.543 90.4394 180.493 90.4919 180.455C90.5444 180.417 90.6051 180.392 90.6691 180.382C90.7373 180.36 90.8111 180.363 90.8777 180.389C90.9443 180.416 90.9994 180.465 91.0336 180.528C91.2315 180.872 90.9555 181.746 90.6795 182.059C90.6733 182.073 90.6622 182.084 90.6483 182.09ZM90.6483 180.559C90.6161 180.569 90.5862 180.585 90.5603 180.607C90.5344 180.628 90.513 180.654 90.4973 180.684C90.4162 181.073 90.4619 181.479 90.6274 181.84C90.8614 181.478 90.9489 181.041 90.8722 180.616C90.8462 180.57 90.8045 180.523 90.6847 180.549L90.6483 180.559Z" fill="#D75337"/>
<path d="M52.457 184.845H56.0345L57.227 176.555H53.6495L52.457 184.845Z" fill="#CE7A63"/>
<path d="M56.2648 184.428H52.2395C52.1703 184.427 52.1031 184.451 52.0504 184.496C51.9978 184.541 51.9632 184.604 51.9531 184.672L51.4793 187.854C51.4686 187.937 51.4762 188.022 51.5015 188.102C51.5267 188.182 51.5691 188.255 51.6255 188.317C51.682 188.379 51.7513 188.428 51.8285 188.46C51.9058 188.493 51.9892 188.508 52.0729 188.505C53.4737 188.479 54.1558 188.396 55.9211 188.396C57.0095 188.396 61.6492 188.51 63.1281 188.51C64.607 188.51 64.6903 187.021 64.0915 186.891C61.2899 186.287 57.8426 185.454 56.8793 184.657C56.7092 184.508 56.4907 184.427 56.2648 184.428Z" fill="#263238"/>
<path opacity="0.2" d="M53.6457 176.555H57.2284L56.6139 180.83H53.0312L53.6457 176.555Z" fill="black"/>
<path d="M69.826 93.7734C69.826 93.7734 67.7743 121.133 66.2954 131.386C64.6811 142.608 58.2396 179.814 58.2396 179.814H51.6836C51.6836 179.814 55.0527 143.53 55.6308 132.428C56.2556 120.367 57.469 93.7995 57.469 93.7995L69.826 93.7734Z" fill="#263238"/>
<path d="M51.416 179.799H58.5032L59.1124 177.31L51.2598 177.695L51.416 179.799Z" fill="#263238"/>
<path d="M57.4776 185.053C57.1594 185.046 56.8431 185.002 56.535 184.923C56.5198 184.92 56.5058 184.913 56.4954 184.901C56.485 184.89 56.4788 184.876 56.4778 184.86C56.4748 184.844 56.4773 184.827 56.4848 184.812C56.4923 184.797 56.5044 184.784 56.5194 184.777C56.6392 184.694 57.7119 184.001 58.1337 184.173C58.1823 184.193 58.2246 184.226 58.2558 184.268C58.287 184.31 58.306 184.36 58.3107 184.412C58.3242 184.494 58.318 184.578 58.2926 184.656C58.2673 184.735 58.2235 184.807 58.1649 184.865C57.965 185.007 57.7216 185.073 57.4776 185.053ZM56.7746 184.803C57.4047 184.933 57.8785 184.912 58.0556 184.746C58.0944 184.708 58.123 184.661 58.1385 184.609C58.154 184.557 58.1559 184.502 58.1441 184.449C58.1425 184.423 58.1339 184.398 58.1192 184.377C58.1045 184.356 58.0843 184.339 58.0608 184.329C57.8317 184.235 57.212 184.537 56.759 184.803H56.7746Z" fill="#D75337"/>
<path d="M56.5516 184.928H56.5151C56.5033 184.922 56.4937 184.912 56.4872 184.9C56.4808 184.888 56.4778 184.874 56.4787 184.861C56.4787 184.819 56.4787 183.788 56.8796 183.439C56.9282 183.394 56.986 183.361 57.049 183.341C57.1121 183.321 57.1787 183.315 57.2441 183.324C57.313 183.326 57.379 183.352 57.4304 183.398C57.4819 183.444 57.5155 183.506 57.5253 183.574C57.5722 183.965 56.9734 184.715 56.5984 184.928H56.5516ZM57.1712 183.475C57.1019 183.476 57.0351 183.502 56.9838 183.548C56.7585 183.885 56.6421 184.283 56.6505 184.689C56.9838 184.423 57.3899 183.856 57.3587 183.6C57.3587 183.548 57.3275 183.491 57.2077 183.481L57.1712 183.475Z" fill="#D75337"/>
<path d="M76.3084 93.9556H57.1558C57.0204 92.2424 57.4162 86.6653 57.1246 79.5989C56.9439 74.3461 56.3062 69.1191 55.2187 63.9769C55.1354 63.5916 55.0469 63.2114 54.9531 62.8261C54.9531 62.8261 55.9269 62.6282 57.3173 62.4251C58.4733 62.2533 59.9209 62.0814 61.3425 62.0137C64.0516 61.86 66.7673 61.86 69.4764 62.0137C70.7262 62.1283 71.9499 62.3366 72.9237 62.5345C74.1734 62.7844 74.9077 63.0031 74.9077 63.0031C74.9077 63.0031 79.6255 73.8188 76.3084 93.9556Z" fill="#263238"/>
<path opacity="0.5" d="M76.3084 93.9556H57.1558C57.0204 92.2424 57.4162 86.6653 57.1246 79.5989C56.9439 74.3461 56.3062 69.1191 55.2187 63.9769C55.1354 63.5916 55.0469 63.2114 54.9531 62.8261C54.9531 62.8261 55.9269 62.6282 57.3173 62.4251C58.4733 62.2533 59.9209 62.0814 61.3425 62.0137C64.0516 61.86 66.7673 61.86 69.4764 62.0137C70.7262 62.1283 71.9499 62.3366 72.9237 62.5345C74.1734 62.7844 74.9077 63.0031 74.9077 63.0031C74.9077 63.0031 79.6255 73.8188 76.3084 93.9556Z" fill="white"/>
<path d="M64.1749 66.7524L66.1849 64.2217L66.6588 63.6072L67.7315 64.18L70.2987 66.1328C72.3817 64.3831 71.3402 62.8157 70.9184 62.1908C70.4498 62.1231 69.9655 62.0606 69.4708 62.0138C66.7599 61.86 64.0425 61.86 61.3317 62.0138C60.7433 62.0138 60.1444 62.0867 59.5664 62.1439C59.9818 63.1845 60.6046 64.1297 61.3968 64.922C62.1891 65.7143 63.1343 66.3371 64.1749 66.7524Z" fill="#263238"/>
<path opacity="0.7" d="M64.1749 66.7524L66.1849 64.2217L66.6588 63.6072L67.7315 64.18L70.2987 66.1328C72.3817 64.3831 71.3402 62.8157 70.9184 62.1908C70.4498 62.1231 69.9655 62.0606 69.4708 62.0138C66.7599 61.86 64.0425 61.86 61.3317 62.0138C60.7433 62.0138 60.1444 62.0867 59.5664 62.1439C59.9818 63.1845 60.6046 64.1297 61.3968 64.922C62.1891 65.7143 63.1343 66.3371 64.1749 66.7524Z" fill="white"/>
<path d="M61.5142 52.8848L63.6909 54.6917L66.6591 57.1548C66.5704 57.5497 66.5061 57.9497 66.4664 58.3525C66.3102 59.9615 66.7268 61.4248 69.0701 61.9976C69.0701 61.9976 71.8768 63.8566 67.711 64.1951C67.6976 64.6482 67.6277 65.0978 67.5027 65.5334C67.1366 65.0256 66.6835 64.5867 66.1644 64.2368C61.608 64.1587 61.0039 62.0497 61.0039 62.0497C62.8004 60.2844 62.1183 55.5093 61.5142 52.8848Z" fill="#F9C8B3"/>
<path opacity="0.2" d="M66.6523 57.1555C66.5636 57.5504 66.4993 57.9504 66.4596 58.3531C65.3557 58.1292 63.8559 56.9524 63.7258 55.8224C63.6698 55.4484 63.6559 55.0694 63.6841 54.6924L66.6523 57.1555Z" fill="black"/>
<path d="M60.6125 49.1159C61.3728 52.5944 61.654 54.6669 63.6952 56.2552C64.3581 56.7777 65.1511 57.1092 65.9886 57.2141C66.8262 57.3189 67.6764 57.193 68.4476 56.85C69.2188 56.507 69.8817 55.9599 70.3648 55.2678C70.8478 54.5756 71.1327 53.7647 71.1886 52.9225C71.4594 49.6783 70.1471 44.5282 66.502 43.5492C65.7152 43.3169 64.8812 43.2952 64.0834 43.4863C63.2855 43.6774 62.5518 44.0745 61.9556 44.6381C61.3594 45.2016 60.9216 45.9117 60.6859 46.6975C60.4502 47.4833 60.4249 48.3173 60.6125 49.1159Z" fill="#F9C8B3"/>
<path d="M65.1999 50.3647C65.2416 50.6511 65.4343 50.8855 65.6217 50.8438C65.8092 50.8022 65.9238 50.573 65.8769 50.2866C65.83 50.0002 65.6478 49.7659 65.4603 49.8076C65.2728 49.8492 65.1583 50.0783 65.1999 50.3647Z" fill="#263238"/>
<path d="M68.4382 49.9897C68.4851 50.2761 68.6726 50.5105 68.86 50.4688C69.0475 50.4272 69.1621 50.198 69.1204 49.9116C69.0787 49.6252 68.8861 49.3909 68.6986 49.4326C68.5111 49.4742 68.3966 49.6929 68.4382 49.9897Z" fill="#263238"/>
<path d="M67.8887 50.2451C68.366 51.0796 68.9527 51.8467 69.6331 52.5259C69.4561 52.6888 69.2453 52.8105 69.0157 52.8826C68.7862 52.9546 68.5436 52.975 68.3053 52.9425L67.8887 50.2451Z" fill="#C57D5E"/>
<path d="M67.6435 53.9835C67.3082 53.9892 66.9754 53.926 66.6655 53.7979C66.3556 53.6698 66.0752 53.4796 65.8418 53.2389C65.8335 53.2309 65.827 53.2212 65.8226 53.2106C65.8182 53.1999 65.8161 53.1884 65.8164 53.1769C65.8167 53.1654 65.8194 53.1541 65.8243 53.1436C65.8292 53.1332 65.8362 53.1239 65.8449 53.1163C65.8535 53.1087 65.8637 53.103 65.8747 53.0996C65.8857 53.0961 65.8972 53.0949 65.9087 53.0962C65.9202 53.0974 65.9312 53.101 65.9412 53.1068C65.9512 53.1125 65.9599 53.1203 65.9667 53.1295C66.2253 53.3852 66.5391 53.5783 66.8839 53.6938C67.2288 53.8094 67.5955 53.8443 67.956 53.7961C67.9669 53.7961 67.9777 53.7982 67.9878 53.8024C67.9979 53.8066 68.0071 53.8127 68.0149 53.8205C68.0226 53.8282 68.0287 53.8374 68.0329 53.8475C68.0371 53.8576 68.0393 53.8684 68.0393 53.8794C68.0393 53.8903 68.0371 53.9012 68.0329 53.9113C68.0287 53.9214 68.0226 53.9306 68.0149 53.9383C68.0071 53.946 67.9979 53.9522 67.9878 53.9564C67.9777 53.9606 67.9669 53.9627 67.956 53.9627C67.8523 53.9762 67.748 53.9832 67.6435 53.9835Z" fill="#263238"/>
<path d="M64.4928 49.4695C64.4656 49.4773 64.4367 49.4773 64.4095 49.4695C64.3707 49.4476 64.3419 49.4114 64.3293 49.3687C64.3167 49.3259 64.3212 49.2799 64.3418 49.2404C64.4668 49.0039 64.6481 48.8018 64.8697 48.652C65.0913 48.5021 65.3464 48.4091 65.6124 48.3812C65.6347 48.3798 65.6571 48.3829 65.6782 48.3903C65.6992 48.3977 65.7186 48.4093 65.7351 48.4244C65.7517 48.4394 65.765 48.4577 65.7743 48.478C65.7836 48.4983 65.7888 48.5203 65.7894 48.5426C65.7908 48.5649 65.7877 48.5873 65.7803 48.6084C65.7729 48.6295 65.7613 48.6489 65.7463 48.6654C65.7312 48.6819 65.713 48.6952 65.6927 48.7045C65.6723 48.7139 65.6504 48.719 65.628 48.7197C65.42 48.7442 65.2212 48.8192 65.0487 48.9381C64.8763 49.057 64.7355 49.2162 64.6386 49.4018C64.622 49.4245 64.5999 49.4426 64.5744 49.4544C64.5489 49.4663 64.5208 49.4715 64.4928 49.4695Z" fill="#263238"/>
<path d="M70.1156 48.7039C70.0882 48.7031 70.0613 48.6961 70.037 48.6835C70.0126 48.6709 69.9915 48.6529 69.975 48.631C69.8611 48.452 69.7084 48.301 69.528 48.1892C69.3477 48.0774 69.1445 48.0077 68.9336 47.9853C68.8884 47.984 68.8454 47.9654 68.8135 47.9335C68.7816 47.9016 68.763 47.8586 68.7617 47.8134C68.7617 47.7679 68.7798 47.7242 68.812 47.6919C68.8443 47.6597 68.888 47.6416 68.9336 47.6416C69.2047 47.6609 69.4677 47.7429 69.7017 47.8811C69.9358 48.0194 70.1345 48.2101 70.2823 48.4383C70.3072 48.476 70.3168 48.5218 70.309 48.5664C70.3013 48.6109 70.2768 48.6508 70.2406 48.6779C70.2225 48.6902 70.2022 48.6989 70.1807 48.7033C70.1593 48.7078 70.1371 48.708 70.1156 48.7039Z" fill="#263238"/>
<path d="M59.67 61.9361C59.759 61.9239 59.8497 61.9369 59.9316 61.9737C60.0136 62.0106 60.0835 62.0697 60.1335 62.1444C61.5342 64.2898 71.3917 79.589 71.876 85.7649C72.0635 88.1551 70.0118 93.5395 68.7048 96.7003C68.4177 97.3884 67.9083 97.9604 67.2578 98.3248C66.6074 98.6891 65.8536 98.8249 65.1169 98.7104L57.4725 97.5127C57.3048 97.4864 57.1442 97.4266 57.0002 97.3368C56.8562 97.2469 56.7319 97.1289 56.6346 96.9898C56.5373 96.8507 56.4692 96.6935 56.4342 96.5274C56.3992 96.3613 56.3981 96.1899 56.431 96.0234C56.7127 94.4967 56.8452 92.9463 56.8268 91.394C56.8268 87.3844 56.6029 76.6208 56.6029 76.6208C56.6029 76.6208 59.7273 70.5855 55.9988 63.0817C55.966 63.0142 55.9497 62.9398 55.9513 62.8647C55.9528 62.7897 55.9722 62.716 56.0078 62.6499C56.0434 62.5838 56.0942 62.5271 56.156 62.4845C56.2178 62.4419 56.2889 62.4145 56.3633 62.4048L59.67 61.9361Z" fill="#D75337"/>
<path opacity="0.1" d="M71.8604 85.7652C71.6313 82.8439 69.3036 77.8813 66.7677 73.2363C65.5804 78.126 64.5754 83.3594 64.8618 86.1505C65.0909 88.3949 67.3301 93.0555 68.9183 96.133C70.2358 92.9409 72.0531 88.0044 71.8604 85.7652Z" fill="black"/>
<path opacity="0.6" d="M69.8302 79.3024C69.5021 78.5733 69.148 77.8235 68.7887 77.0632C67.1171 77.1153 65.4768 77.1257 63.9407 77.1101C63.0476 71.8762 61.4263 66.7931 59.1239 62.0088L56.7389 62.3421C59.0409 66.9974 60.6714 71.9555 61.5817 77.0684C59.4988 77.0164 57.7231 76.933 56.6191 76.8705C56.6191 77.2663 56.6452 78.0839 56.666 79.1462C57.8793 79.2191 59.7383 79.3076 61.9515 79.3545C62.8532 85.5842 62.7018 91.9213 61.5036 98.1009L63.748 98.455C64.9664 92.1631 65.1423 85.7138 64.2687 79.3649H65.0915C66.6172 79.3961 68.2159 79.3701 69.8302 79.3024Z" fill="white"/>
<path d="M71.4767 61.9982C71.4174 61.9854 71.3559 61.9863 71.297 62.0011C71.2381 62.0158 71.1833 62.0439 71.137 62.0831C71.0907 62.1224 71.054 62.1718 71.0299 62.2275C71.0057 62.2832 70.9947 62.3438 70.9977 62.4044C71.0523 64.7954 70.7647 67.182 70.1437 69.4916C68.6179 75.2197 65.556 82.6245 65.9205 86.1551C66.16 88.5192 68.6335 93.5652 70.2218 96.6115C70.5862 97.3107 71.1879 97.8573 71.9189 98.1531C72.6499 98.449 73.4624 98.4747 74.2106 98.2257L76.4029 97.4967C76.6875 97.4017 76.929 97.2087 77.0845 96.9522C77.24 96.6956 77.2992 96.3921 77.2517 96.0959C77.0694 94.867 76.9288 92.4508 77.4912 88.1756C78.3869 81.3696 77.4912 72.5535 77.4912 72.5535C76.2225 69.5018 75.3797 66.29 74.9865 63.0085C74.9747 62.9257 74.938 62.8484 74.8813 62.787C74.8245 62.7256 74.7504 62.683 74.6688 62.6648L71.4767 61.9982Z" fill="#D75337"/>
<path opacity="0.6" d="M77.8495 78.5366C77.8495 77.9273 77.8079 77.3441 77.7818 76.7973C77.7818 76.6151 77.7818 76.4328 77.7558 76.2766C77.0684 76.3964 76.3446 76.5005 75.6052 76.589C75.3722 71.8916 74.8977 67.2092 74.1836 62.5605L71.7934 62.0762C72.5992 66.9575 73.1208 71.8815 73.3556 76.8234C71.533 76.9744 69.6532 77.0629 67.815 77.0994C67.5702 77.8805 67.3359 78.6616 67.1172 79.3958C69.2001 79.3593 71.3664 79.2708 73.4701 79.0938C73.5274 80.3227 73.5795 81.6089 73.6212 82.9628C73.8503 90.8415 73.8399 95.6115 73.7722 98.3453C73.9238 98.3194 74.0735 98.2828 74.22 98.236L76.0582 97.6267C76.1103 94.7523 76.0999 90.1281 75.8864 82.8951C75.8447 81.4787 75.7926 80.1404 75.7353 78.8646C76.4592 78.7761 77.1726 78.6772 77.8599 78.5626L77.8495 78.5366Z" fill="white"/>
<path d="M62.6682 87.4514C61.7256 86.7797 58.2888 87.4202 56.7943 87.743C56.7943 89.175 56.8255 90.4613 56.8255 91.3882C56.8255 92.0443 56.8255 92.6379 56.7734 93.1795C58.2367 93.4763 61.6319 94.0804 62.6682 93.4867C64.2304 92.5911 64.095 88.4721 62.6682 87.4514Z" fill="#D75337"/>
<path opacity="0.2" d="M62.6682 87.4514C61.7256 86.7797 58.2888 87.4202 56.7943 87.743C56.7943 89.175 56.8255 90.4613 56.8255 91.3882C56.8255 92.0443 56.8255 92.6379 56.7734 93.1795C58.2367 93.4763 61.6319 94.0804 62.6682 93.4867C64.2304 92.5911 64.095 88.4721 62.6682 87.4514Z" fill="black"/>
<path d="M69.101 91.8056C66.9635 91.8307 64.8277 91.6739 62.7168 91.3369L63.0449 89.5508C67.2133 90.1538 71.4469 90.1538 75.6154 89.5508L75.8601 91.3473C73.6202 91.6545 71.3619 91.8076 69.101 91.8056Z" fill="#D75337"/>
<g opacity="0.2">
<path d="M69.101 91.8056C66.9635 91.8307 64.8277 91.6739 62.7168 91.3369L63.0449 89.5508C67.2133 90.1538 71.4469 90.1538 75.6154 89.5508L75.8601 91.3473C73.6202 91.6545 71.3619 91.8076 69.101 91.8056Z" fill="black"/>
</g>
<path d="M77.5897 87.2439C76.6419 87.1085 75.7359 87.1033 75.3557 87.4522C74.2414 88.4937 74.1372 92.5919 75.3557 93.4823C75.8866 93.7427 76.4858 93.8301 77.069 93.7323C77.0738 91.8801 77.2078 90.0304 77.4699 88.1969L77.5897 87.2439Z" fill="#D75337"/>
<path opacity="0.2" d="M77.5897 87.2439C76.6419 87.1085 75.7359 87.1033 75.3557 87.4522C74.2414 88.4937 74.1372 92.5919 75.3557 93.4823C75.8866 93.7427 76.4858 93.8301 77.069 93.7323C77.0738 91.8801 77.2078 90.0304 77.4699 88.1969L77.5897 87.2439Z" fill="black"/>
<path d="M60.6853 47.7049C60.6853 47.7049 57.5088 48.6631 58.7169 49.9441C58.7169 49.9441 57.5504 50.9074 58.6804 51.8291C58.6804 51.8291 58.0399 53.4851 59.8937 53.3913C59.8937 53.3913 59.8052 55.3493 61.2216 54.6723C61.2216 54.6723 61.5965 55.4014 62.3672 54.8129C63.1379 54.2245 62.1902 52.2093 62.1902 52.2093C62.1902 52.2093 63.5441 51.6208 63.0963 50.3763C63.0963 50.3763 64.2835 49.8556 63.6743 48.2933C63.6743 48.2933 64.6585 47.4341 64.32 46.8301L60.6853 47.7049Z" fill="#263238"/>
<path d="M59.8105 52.7447C60.3739 53.4263 61.1559 53.8919 62.0237 54.0622C63.1224 54.2496 63.3672 53.229 62.81 52.25C62.2892 51.3648 61.128 50.2035 60.149 50.4587C59.17 50.7138 59.1023 51.8907 59.8105 52.7447Z" fill="#F9C8B3"/>
<path d="M70.3829 44.9189L59.6922 47.9756C59.6922 47.9756 57.9686 42.737 63.103 41.5081C67.9927 40.3364 70.3829 44.9189 70.3829 44.9189Z" fill="#D75337"/>
<path d="M63.7635 44.3134L59.4935 45.5424C59.4344 45.5581 59.3722 45.5581 59.3131 45.5422C59.254 45.5263 59.2001 45.4952 59.1569 45.4519C59.1136 45.4087 59.0825 45.3548 59.0666 45.2957C59.0508 45.2367 59.0507 45.1745 59.0665 45.1153L59.3477 44.0739C59.3663 44.0058 59.4051 43.9449 59.459 43.8994C59.513 43.8538 59.5794 43.8257 59.6497 43.8187L63.6541 43.4178C63.6936 43.4133 63.7336 43.4173 63.7714 43.4295C63.8092 43.4416 63.844 43.4616 63.8735 43.4882C63.903 43.5148 63.9266 43.5473 63.9426 43.5836C63.9587 43.6199 63.9668 43.6592 63.9666 43.699V44.0322C63.969 44.095 63.9504 44.1569 63.9136 44.2079C63.8767 44.2588 63.8239 44.296 63.7635 44.3134Z" fill="#D75337"/>
<path opacity="0.2" d="M63.7635 44.3134L59.4935 45.5424C59.4344 45.5581 59.3722 45.5581 59.3131 45.5422C59.254 45.5263 59.2001 45.4952 59.1569 45.4519C59.1136 45.4087 59.0825 45.3548 59.0666 45.2957C59.0508 45.2367 59.0507 45.1745 59.0665 45.1153L59.3477 44.0739C59.3663 44.0058 59.4051 43.9449 59.459 43.8994C59.513 43.8538 59.5794 43.8257 59.6497 43.8187L63.6541 43.4178C63.6936 43.4133 63.7336 43.4173 63.7714 43.4295C63.8092 43.4416 63.844 43.4616 63.8735 43.4882C63.903 43.5148 63.9266 43.5473 63.9426 43.5836C63.9587 43.6199 63.9668 43.6592 63.9666 43.699V44.0322C63.969 44.095 63.9504 44.1569 63.9136 44.2079C63.8767 44.2588 63.8239 44.296 63.7635 44.3134Z" fill="white"/>
<path d="M68.6277 43.1841L67.5029 43.356C67.2605 43.3973 67.0116 43.3412 66.8104 43.1998C65.989 42.5985 65.0194 42.2323 64.0056 42.1405C62.9918 42.0488 61.9722 42.235 61.0562 42.679C61.0348 42.6921 61.0091 42.6962 60.9847 42.6904C60.9603 42.6845 60.9392 42.6692 60.9261 42.6478C60.9129 42.6264 60.9089 42.6006 60.9147 42.5762C60.9206 42.5518 60.9359 42.5307 60.9573 42.5176C62.1862 41.5126 65.1961 39.7421 68.7683 42.6374C68.8183 42.6727 68.8564 42.7224 68.8775 42.7799C68.8986 42.8374 68.9017 42.8999 68.8865 42.9592C68.8713 43.0185 68.8383 43.0718 68.7921 43.1119C68.7459 43.1521 68.6886 43.1773 68.6277 43.1841Z" fill="#D75337"/>
<path opacity="0.2" d="M68.6277 43.1841L67.5029 43.356C67.2605 43.3973 67.0116 43.3412 66.8104 43.1998C65.989 42.5985 65.0194 42.2323 64.0056 42.1405C62.9918 42.0488 61.9722 42.235 61.0562 42.679C61.0348 42.6921 61.0091 42.6962 60.9847 42.6904C60.9603 42.6845 60.9392 42.6692 60.9261 42.6478C60.9129 42.6264 60.9089 42.6006 60.9147 42.5762C60.9206 42.5518 60.9359 42.5307 60.9573 42.5176C62.1862 41.5126 65.1961 39.7421 68.7683 42.6374C68.8183 42.6727 68.8564 42.7224 68.8775 42.7799C68.8986 42.8374 68.9017 42.8999 68.8865 42.9592C68.8713 43.0185 68.8383 43.0718 68.7921 43.1119C68.7459 43.1521 68.6886 43.1773 68.6277 43.1841Z" fill="white"/>
<path opacity="0.6" d="M69.8759 44.1424L67.2723 44.7673C67.2159 44.7819 67.1564 44.7775 67.1027 44.755C67.0491 44.7324 67.0044 44.6928 66.9754 44.6423L66.7776 44.2987C66.7572 44.2611 66.7458 44.2194 66.7443 44.1768C66.7428 44.1341 66.7512 44.0917 66.7689 44.0528C66.7865 44.0139 66.813 43.9797 66.8461 43.9528C66.8792 43.9259 66.9182 43.907 66.9598 43.8977L69.2458 43.4238C69.4697 43.6509 69.6801 43.8908 69.8759 44.1424Z" fill="white"/>
<path d="M70.2209 44.6426C70.2209 44.6426 74.2826 45.684 70.3823 46.5485C67.4634 47.141 64.5043 47.5152 61.5298 47.668L59.7645 48.1888C59.6761 48.2147 59.5811 48.2046 59.5001 48.1607C59.4192 48.1168 59.3588 48.0426 59.3323 47.9544V47.8972C59.3181 47.8514 59.3133 47.8032 59.3183 47.7555C59.3233 47.7078 59.3379 47.6616 59.3613 47.6197C59.3847 47.5778 59.4163 47.5411 59.4543 47.5118C59.4923 47.4826 59.5358 47.4613 59.5823 47.4493L70.2209 44.6426Z" fill="#D75337"/>
<path opacity="0.2" d="M70.2209 44.6426C70.2209 44.6426 74.2826 45.684 70.3823 46.5485C67.4634 47.141 64.5043 47.5152 61.5298 47.668L59.7645 48.1888C59.6761 48.2147 59.5811 48.2046 59.5001 48.1607C59.4192 48.1168 59.3588 48.0426 59.3323 47.9544V47.8972C59.3181 47.8514 59.3133 47.8032 59.3183 47.7555C59.3233 47.7078 59.3379 47.6616 59.3613 47.6197C59.3847 47.5778 59.4163 47.5411 59.4543 47.5118C59.4923 47.4826 59.5358 47.4613 59.5823 47.4493L70.2209 44.6426Z" fill="white"/>
<path d="M77.4423 76.0684H66.8714L61.4922 89.0086L61.8255 89.295H72.3964L77.7704 76.3548L77.4423 76.0684Z" fill="#263238"/>
<path opacity="0.4" d="M77.4423 76.0684H66.8714L61.4922 89.0086L61.8255 89.295H72.3964L77.7704 76.3548L77.4423 76.0684Z" fill="white"/>
<path d="M72.3971 89.2957H61.8262L67.2054 76.3555H77.7711L72.3971 89.2957Z" fill="#263238"/>
<path d="M74.7022 75.8809H70.677L70.0625 77.365L70.1979 77.4847H74.2232L74.8428 76.0006L74.7022 75.8809Z" fill="#D75337"/>
<path opacity="0.5" d="M74.7022 75.8809H70.677L70.0625 77.365L70.1979 77.4847H74.2232L74.8428 76.0006L74.7022 75.8809Z" fill="white"/>
<path d="M74.2245 77.4851L74.8442 76.001H70.8189L70.1992 77.4851H74.2245Z" fill="#D75337"/>
<path opacity="0.2" d="M74.2245 77.4851L74.8442 76.001H70.8189L70.1992 77.4851H74.2245Z" fill="white"/>
<path d="M60.7016 82.8428L64.1177 81.3848L63.2585 85.9204C63.2585 85.9204 60.0039 86.665 59.7539 84.957L60.7016 82.8428Z" fill="#F9C8B3"/>
<path d="M67.2623 82.8324L65.2939 86.5609L63.2578 85.9412L64.117 81.3848L67.2623 82.8324Z" fill="#F9C8B3"/>
<path d="M52.5933 80.25H47.5162C47.476 80.9797 47.5534 81.7111 47.7453 82.4163C47.7869 82.5569 47.8338 82.6975 47.8911 82.8485C47.9593 83.028 48.0411 83.2021 48.1358 83.3692C48.3039 83.6739 48.5104 83.9556 48.7503 84.2076C49.1388 84.6176 49.595 84.9576 50.099 85.2126C50.8443 85.588 51.6409 85.8513 52.4631 85.9937C53.1511 86.1197 53.8472 86.1963 54.5461 86.2228C57.166 86.2938 59.7838 86.0172 62.3311 85.4001L62.0499 82.7287C59.7067 82.6303 57.3723 82.3798 55.0616 81.9788C54.5443 81.8754 54.0332 81.7433 53.5306 81.5831C53.1711 81.4582 52.8227 81.3031 52.4892 81.1196C52.4866 80.8279 52.5127 80.5366 52.5673 80.25H52.5933Z" fill="#F9C8B3"/>
</svg>
